<svg width="1920" height="1080" viewBox="0 0 1920 1080" xmlns="http://www.w3.org/2000/svg"><rect width="1920" height="1080" fill="#81b2df"/><path d="M 0,1080 C 0,1080 0,180 0,180 C 123.57123266157825,209.89907472279862 247.1424653231565,239.79814944559726 257,239 C 266.8575346768435,238.20185055440274 163.00137136895228,206.70647694040966 177,181 C 190.99862863104772,155.29352305959034 322.8520492010343,135.3759427927641 369,135 C 415.1479507989657,134.6240572072359 375.5904318269105,153.78975188853389 410,172 C 444.4095681730895,190.21024811146611 552.7862234913237,207.46504965310032 598,211 C 643.2137765086763,214.53495034689968 625.2646742077948,204.35004949906474 665,197 C 704.7353257922052,189.64995050093526 802.1550796774974,185.13475235064075 857,174 C 911.8449203225026,162.86524764935925 924.1150070822159,145.1109410983722 957,156 C 989.8849929177841,166.8890589016278 1043.3848919936386,206.42148325587053 1073,212 C 1102.6151080063614,217.57851674412947 1108.3454249432293,189.2031258781457 1148,176 C 1187.6545750567707,162.7968741218543 1261.2334082334442,164.7660132315466 1314,162 C 1366.7665917665558,159.2339867684534 1398.7209421229943,151.7328211956679 1462,161 C 1525.2790578770057,170.2671788043321 1619.8828232745784,196.30270198578177 1653,210 C 1686.1171767254216,223.69729801421823 1657.7477647786918,225.0563708612052 1692,218 C 1726.2522352213082,210.9436291387948 1823.126117610654,195.4718145693974 1920,180 C 1920,180 1920,1080 1920,1080 Z" fill="#3d1053" opacity="0.09999999999999999"/><path d="M 0,1080 C 0,1080 0,360 0,360 C 51.51848998528788,386.8006543707439 103.03697997057576,413.6013087414878 110,411 C 116.96302002942424,408.3986912585122 79.37057010298483,376.3954194047926 127,351 C 174.62942989701517,325.6045805952074 307.480739617485,306.81701363934167 355,308 C 402.519260382515,309.18298636065833 364.7064714270751,330.3365260378407 386,362 C 407.2935285729249,393.6634739621593 487.6933746742146,435.83688220929537 582,418 C 676.3066253257854,400.16311779070463 784.5200298760664,322.3159451249777 855,302 C 925.4799701239336,281.6840548750223 958.22650582152,318.89933729079394 1002,348 C 1045.77349417848,377.10066270920606 1100.5739468378538,398.08670571184655 1127,396 C 1153.4260531621462,393.91329428815345 1151.4777068270648,368.7538398618198 1173,359 C 1194.5222931729352,349.2461601381802 1239.5152258538878,354.8979348408743 1276,363 C 1312.4847741461122,371.1020651591257 1340.4613897573838,381.6544207746829 1391,395 C 1441.5386102426162,408.3455792253171 1514.6392151165776,424.4843820603943 1530,396 C 1545.3607848834224,367.5156179396057 1502.981749776306,294.40805098374005 1549,300 C 1595.018250223694,305.59194901625995 1729.4337857781982,389.88341400464566 1806,413 C 1882.5662142218018,436.11658599535434 1901.2831071109008,398.0582929976772 1920,360 C 1920,360 1920,1080 1920,1080 Z" fill="#3d1053" opacity="0.19999999999999998"/><path d="M 0,1080 C 0,1080 0,540 0,540 C 104.97776350761266,500.3360610556165 209.95552701522533,460.6721221112329 228,478 C 246.04447298477467,495.3278778887671 177.15565544671134,569.6475726106848 167,595 C 156.84434455328866,620.3524273893152 205.4218511979294,596.7375874460278 310,584 C 414.5781488020706,571.2624125539722 575.1569397615712,569.4020776052046 640,566 C 704.8430602384288,562.5979223947954 673.9503897557862,557.654102133154 691,566 C 708.0496102442138,574.345897866846 773.041501215284,595.9815138621799 811,606 C 848.958498784716,616.0184861378201 859.8836053830776,614.4198424181267 855,592 C 850.1163946169224,569.5801575818733 829.4240772524058,526.3391164653135 923,526 C 1016.5759227475942,525.6608835346865 1224.4200856072987,568.2236917206191 1263,584 C 1301.5799143927013,599.7763082793809 1170.8955803183997,588.7661166522101 1139,588 C 1107.1044196816003,587.2338833477899 1173.9975931191032,596.7118416705404 1297,596 C 1420.0024068808968,595.2881583294596 1599.1140472051889,584.3865166656284 1644,555 C 1688.8859527948111,525.6134833343716 1599.5462180601417,477.7420916669462 1581,481 C 1562.4537819398583,484.2579083330538 1614.7010805542452,538.6451166665868 1683,557 C 1751.2989194457548,575.3548833334132 1835.6494597228775,557.6774416667066 1920,540 C 1920,540 1920,1080 1920,1080 Z" fill="#3d1053" opacity="0.3"/><path d="M 0,1080 C 0,1080 0,720 0,720 C 83.64241413768686,727.687330653798 167.2848282753737,735.3746613075958 211,728 C 254.7151717246263,720.6253386924042 258.503101036192,698.1886854234143 294,713 C 329.496898963808,727.8113145765857 396.70276757985835,779.8705969987469 405,785 C 413.29723242014165,790.1294030012531 362.6858286443747,748.3289265815979 390,716 C 417.3141713556253,683.6710734184021 522.553917842643,660.8136966748614 596,674 C 669.446082157357,687.1863033251386 711.0984999850529,736.4162867189566 795,746 C 878.9015000149471,755.5837132810434 1005.0520822171457,725.5211564493122 1008,722 C 1010.9479177828543,718.4788435506878 890.6931711463651,741.4990874837948 927,740 C 963.3068288536349,738.5009125162052 1156.1752331973942,712.4824936155085 1192,718 C 1227.8247668026058,723.5175063844915 1106.6058960640585,760.5709380541717 1157,757 C 1207.3941039359415,753.4290619458283 1429.401182546371,709.2337541678048 1489,699 C 1548.598817453629,688.7662458321952 1445.7893737504573,712.494045274609 1425,713 C 1404.2106262495427,713.505954725391 1465.4413224518,690.7900647337591 1520,687 C 1574.5586775482,683.2099352662409 1622.4453364423428,698.3456957903545 1688,707 C 1753.5546635576572,715.6543042096455 1836.7773317788287,717.8271521048227 1920,720 C 1920,720 1920,1080 1920,1080 Z" fill="#3d1053" opacity="0.39999999999999997"/><path d="M 0,1080 C 0,1080 0,900 0,900 C -43.31705309528324,892.2841188534363 -86.63410619056648,884.5682377068727 0,873 C 86.63410619056648,861.4317622931273 303.2193716669827,846.0111680259455 383,846 C 462.7806283330173,845.9888319740545 405.7566195226356,861.3870901893453 388,865 C 370.2433804773644,868.6129098106547 391.75415024247485,860.4404712166738 395,879 C 398.24584975752515,897.5595287833262 383.2267795074648,942.8510249439596 496,942 C 608.7732204925352,941.1489750560404 849.338731727666,894.1554290074879 904,892 C 958.661268272334,889.8445709925121 827.4182935818716,932.5272590260886 787,916 C 746.5817064181284,899.4727409739114 796.9880939448481,823.7355348881575 905,832 C 1013.0119060551519,840.2644651118425 1178.6293306387365,932.5306014212811 1238,952 C 1297.3706693612635,971.4693985787189 1250.4945835002052,918.1420594267182 1294,895 C 1337.5054164997948,871.8579405732818 1471.3923353604423,878.9011608718462 1482,877 C 1492.6076646395577,875.0988391281538 1379.936075058026,864.2532970858971 1440,862 C 1500.063924941974,859.7467029141029 1732.8633644074548,866.0856507845662 1801,882 C 1869.1366355925452,897.9143492154338 1772.6104673121556,923.4040997758382 1765,928 C 1757.3895326878444,932.5959002241618 1838.6947663439223,916.2979501120809 1920,900 C 1920,900 1920,1080 1920,1080 Z" fill="#3d1053" opacity="0.49999999999999994"/></svg>